<?xml version="1.0" standalone="no"?>
<!DOCTYPE svg PUBLIC "-//W3C//DTD SVG 20010904//EN"
 "http://www.w3.org/TR/2001/REC-SVG-20010904/DTD/svg10.dtd">
<svg version="1.0" xmlns="http://www.w3.org/2000/svg"
 width="222.000000pt" height="153.000000pt" viewBox="0 0 222.000000 153.000000"
 preserveAspectRatio="xMidYMid meet">
<metadata>
Created by potrace 1.16, written by Peter Selinger 2001-2019
</metadata>
<g transform="translate(0.000000,153.000000) scale(0.100000,-0.100000)"
fill="#000000" stroke="none">
<path d="M0 765 l0 -765 1110 0 1110 0 0 765 0 765 -1110 0 -1110 0 0 -765z
m1518 537 l83 -77 -3 -330 -3 -330 -42 -3 c-42 -3 -43 -4 -43 -38 0 -33 -1
-34 -37 -34 -62 0 -545 40 -554 46 -11 7 -12 34 -1 34 4 0 12 -4 18 -9 5 -5
115 -16 244 -25 129 -9 250 -18 268 -21 l32 -4 0 315 0 314 -75 0 -75 0 0 71
0 72 -142 -7 c-215 -10 -245 -14 -251 -38 -7 -26 -27 -14 -27 17 0 24 17 35
56 35 20 0 24 5 24 30 0 24 4 30 23 31 12 0 87 6 167 13 80 8 170 14 200 15
l55 1 83 -78z m-452 -167 c205 -100 187 -407 -29 -490 -56 -21 -155 -17 -209
9 -40 19 -115 90 -123 117 -4 13 -19 19 -48 21 -30 2 -43 8 -45 21 -3 14 4 17
32 17 25 0 36 4 36 15 0 20 -68 20 -90 0 -14 -13 -19 -11 -45 10 l-30 23 29
31 c22 23 33 28 43 20 7 -6 10 -15 7 -20 -3 -5 13 -9 34 -9 44 0 68 26 29 32
-29 4 -28 32 1 36 15 2 29 18 43 45 70 140 224 191 365 122z"/>
<path d="M1250 1344 c-85 -6 -174 -13 -197 -13 -37 -1 -43 -4 -43 -22 0 -20 4
-21 63 -15 34 3 110 8 168 12 l106 6 80 -73 81 -74 1 -287 1 -288 30 0 30 0
-1 318 0 317 -75 65 c-41 36 -77 65 -82 66 -4 1 -77 -5 -162 -12z"/>
<path d="M899 1133 c-15 -2 -50 -18 -79 -36 -135 -82 -152 -272 -34 -375 182
-161 452 16 382 250 -15 51 -78 122 -125 141 -45 17 -107 26 -144 20z m126
-52 c178 -80 153 -330 -38 -382 -88 -23 -198 36 -233 126 -63 167 109 330 271
256z"/>
<path d="M875 1056 c-77 -33 -121 -132 -95 -210 l12 -36 84 0 c77 0 84 -2 84
-20 0 -18 -7 -20 -67 -20 -66 0 -67 0 -43 -17 30 -21 121 -29 159 -13 34 14
86 67 96 98 6 21 3 22 -54 22 -54 0 -61 2 -61 20 0 18 7 20 64 20 l64 0 -8 37
c-12 51 -39 84 -90 111 -50 25 -100 28 -145 8z"/>
</g>
</svg>
